<mxfile host="app.diagrams.net" agent="Mozilla/5.0 (X11; Linux x86_64) AppleWebKit/537.36 (KHTML, like Gecko) Chrome/131.0.0.0 Safari/537.36" version="26.0.10">
  <diagram name="Page-1" id="YdDTtTf0Ojr7IKmcst_1">
    <mxGraphModel dx="1362" dy="793" grid="1" gridSize="10" guides="1" tooltips="1" connect="1" arrows="1" fold="1" page="1" pageScale="1" pageWidth="850" pageHeight="1100" math="0" shadow="0">
      <root>
        <mxCell id="0" />
        <mxCell id="1" parent="0" />
        <mxCell id="x2-6WO7d81Vw8A547KKe-1" value="long long fatorial(long long n){&lt;div&gt;&lt;span style=&quot;white-space: pre;&quot;&gt;&#x9;&lt;/span&gt;if(n == 1){&lt;/div&gt;&lt;div&gt;&lt;span style=&quot;white-space: pre;&quot;&gt;&#x9;&lt;/span&gt;&lt;span style=&quot;white-space: pre;&quot;&gt;&#x9;&lt;/span&gt;return 1;&lt;br&gt;&lt;span style=&quot;white-space: pre;&quot;&gt;&#x9;&lt;/span&gt;}&lt;/div&gt;&lt;div&gt;&lt;span style=&quot;white-space: pre;&quot;&gt;&#x9;&lt;/span&gt;return n*fatorial(n-1);&lt;br&gt;&lt;/div&gt;&lt;div&gt;}&lt;/div&gt;" style="text;html=1;align=left;verticalAlign=middle;whiteSpace=wrap;rounded=0;fontSize=24;" vertex="1" parent="1">
          <mxGeometry x="20" y="115" width="420" height="150" as="geometry" />
        </mxCell>
        <mxCell id="x2-6WO7d81Vw8A547KKe-9" style="edgeStyle=orthogonalEdgeStyle;rounded=0;orthogonalLoop=1;jettySize=auto;html=1;exitX=1;exitY=0.75;exitDx=0;exitDy=0;entryX=0;entryY=0.5;entryDx=0;entryDy=0;fillColor=#dae8fc;strokeColor=#0000FF;strokeWidth=6;" edge="1" parent="1" source="x2-6WO7d81Vw8A547KKe-2" target="x2-6WO7d81Vw8A547KKe-16">
          <mxGeometry relative="1" as="geometry" />
        </mxCell>
        <mxCell id="x2-6WO7d81Vw8A547KKe-2" value="&lt;div&gt;retorna&lt;/div&gt;3*fatorial(2)" style="rounded=0;whiteSpace=wrap;html=1;fontSize=24;strokeWidth=4;" vertex="1" parent="1">
          <mxGeometry x="530" y="70" width="160" height="80" as="geometry" />
        </mxCell>
        <mxCell id="x2-6WO7d81Vw8A547KKe-7" style="edgeStyle=orthogonalEdgeStyle;rounded=0;orthogonalLoop=1;jettySize=auto;html=1;exitX=0.75;exitY=1;exitDx=0;exitDy=0;entryX=1;entryY=0.5;entryDx=0;entryDy=0;strokeColor=#0000FF;strokeWidth=6;" edge="1" parent="1" source="x2-6WO7d81Vw8A547KKe-3" target="x2-6WO7d81Vw8A547KKe-17">
          <mxGeometry relative="1" as="geometry" />
        </mxCell>
        <mxCell id="x2-6WO7d81Vw8A547KKe-10" style="edgeStyle=orthogonalEdgeStyle;rounded=0;orthogonalLoop=1;jettySize=auto;html=1;exitX=0;exitY=0.5;exitDx=0;exitDy=0;entryX=0.5;entryY=1;entryDx=0;entryDy=0;strokeColor=#FF3333;strokeWidth=6;" edge="1" parent="1" source="x2-6WO7d81Vw8A547KKe-3" target="x2-6WO7d81Vw8A547KKe-2">
          <mxGeometry relative="1" as="geometry">
            <Array as="points">
              <mxPoint x="790" y="110" />
              <mxPoint x="790" y="190" />
              <mxPoint x="610" y="190" />
            </Array>
          </mxGeometry>
        </mxCell>
        <mxCell id="x2-6WO7d81Vw8A547KKe-3" value="&lt;div&gt;retorna&lt;/div&gt;2*fatorial(1)" style="rounded=0;whiteSpace=wrap;html=1;fontSize=24;strokeWidth=4;" vertex="1" parent="1">
          <mxGeometry x="820" y="70" width="160" height="80" as="geometry" />
        </mxCell>
        <mxCell id="x2-6WO7d81Vw8A547KKe-8" style="edgeStyle=orthogonalEdgeStyle;rounded=0;orthogonalLoop=1;jettySize=auto;html=1;exitX=1;exitY=0.5;exitDx=0;exitDy=0;entryX=1;entryY=0.5;entryDx=0;entryDy=0;strokeColor=#FF3333;strokeWidth=6;" edge="1" parent="1" source="x2-6WO7d81Vw8A547KKe-4" target="x2-6WO7d81Vw8A547KKe-3">
          <mxGeometry relative="1" as="geometry">
            <Array as="points">
              <mxPoint x="840" y="300" />
              <mxPoint x="1030" y="300" />
              <mxPoint x="1030" y="110" />
            </Array>
          </mxGeometry>
        </mxCell>
        <mxCell id="x2-6WO7d81Vw8A547KKe-4" value="retorna 1" style="rounded=0;whiteSpace=wrap;html=1;fontSize=24;strokeWidth=4;" vertex="1" parent="1">
          <mxGeometry x="680" y="257" width="160" height="80" as="geometry" />
        </mxCell>
        <mxCell id="x2-6WO7d81Vw8A547KKe-11" value="1" style="text;html=1;align=center;verticalAlign=middle;whiteSpace=wrap;rounded=0;fontColor=#FF3333;fontSize=33;" vertex="1" parent="1">
          <mxGeometry x="1030" y="180" width="60" height="30" as="geometry" />
        </mxCell>
        <mxCell id="x2-6WO7d81Vw8A547KKe-12" value="3*2" style="text;html=1;align=center;verticalAlign=middle;whiteSpace=wrap;rounded=0;fontColor=#FF3333;fontSize=33;" vertex="1" parent="1">
          <mxGeometry x="420" y="115" width="60" height="30" as="geometry" />
        </mxCell>
        <mxCell id="x2-6WO7d81Vw8A547KKe-13" value="2" style="text;html=1;align=center;verticalAlign=middle;whiteSpace=wrap;rounded=0;fontColor=#FF3333;fontSize=33;" vertex="1" parent="1">
          <mxGeometry x="700" y="150" width="60" height="30" as="geometry" />
        </mxCell>
        <mxCell id="x2-6WO7d81Vw8A547KKe-18" style="edgeStyle=orthogonalEdgeStyle;rounded=0;orthogonalLoop=1;jettySize=auto;html=1;exitX=0;exitY=0.75;exitDx=0;exitDy=0;entryX=1;entryY=0.5;entryDx=0;entryDy=0;strokeColor=#FF3333;strokeWidth=4;" edge="1" parent="1" source="x2-6WO7d81Vw8A547KKe-2" target="x2-6WO7d81Vw8A547KKe-12">
          <mxGeometry relative="1" as="geometry" />
        </mxCell>
        <mxCell id="x2-6WO7d81Vw8A547KKe-15" value="&lt;span style=&quot;font-size: 24px;&quot;&gt;fatorial(3)&lt;/span&gt;" style="rounded=0;whiteSpace=wrap;html=1;strokeWidth=4;" vertex="1" parent="1">
          <mxGeometry x="530" y="33" width="160" height="37" as="geometry" />
        </mxCell>
        <mxCell id="x2-6WO7d81Vw8A547KKe-16" value="&lt;span style=&quot;font-size: 24px;&quot;&gt;fatorial(2)&lt;/span&gt;" style="rounded=0;whiteSpace=wrap;html=1;strokeWidth=4;" vertex="1" parent="1">
          <mxGeometry x="820" y="33" width="160" height="37" as="geometry" />
        </mxCell>
        <mxCell id="x2-6WO7d81Vw8A547KKe-17" value="&lt;span style=&quot;font-size: 24px;&quot;&gt;fatorial(1)&lt;/span&gt;" style="rounded=0;whiteSpace=wrap;html=1;strokeWidth=4;" vertex="1" parent="1">
          <mxGeometry x="680" y="220" width="160" height="37" as="geometry" />
        </mxCell>
      </root>
    </mxGraphModel>
  </diagram>
</mxfile>
